ffmpeg started on 2025-04-30 at 18:01:50
Report written to "D:\Convert\FFMetrics\reports\ssim_report-6.txt"
Log level: 32
Command line:
ffmpeg -hide_banner -nostdin -i "G:\\\xc0\xed\xe8\xec\xe5\\\xce\xed\xe3\xee\xe8\xed\xe3\xe8\\!_35_\xcb\xe5\xf2\xee_2024\\JamClub\\\xcc\xe5\xf7 \xe8 \xe6\xe5\xe7\xeb \xc2\xe8\xf1\xf2\xee\xf0\xe8\xe8\\JamClub_Tsue_to_Tsurugi_no_Wistoria_03_1080p_HEVC.mkv" -i "G:\\\xc0\xed\xe8\xec\xe5\\\xce\xed\xe3\xee\xe8\xed\xe3\xe8\\!_35_\xcb\xe5\xf2\xee_2024\\JamClub\\\xcc\xe5\xf7 \xe8 \xe6\xe5\xe7\xeb \xc2\xe8\xf1\xf2\xee\xf0\xe8\xe8\\JamClub_Tsue_to_Tsurugi_no_Wistoria_03_1080p.mp4" -lavfi "[0:v]settb=AVTB,setpts=PTS-STARTPTS,format=pix_fmts=yuv420p10,fps=24000/1001,scale=1920:1080:flags=bicubic[main];[1:v]settb=AVTB,setpts=PTS-STARTPTS,format=pix_fmts=yuv420p,fps=24000/1001,scale=1920:1080:flags=bicubic[ref];[main][ref]ssim=eof_action=endall:stats_file='D\\:/Convert/FFMetrics/logs/ssim_logfile-6.txt'" -f null -
Input #0, matroska,webm, from 'G:\Аниме\Онгоинги\!_35_Лето_2024\JamClub\Меч и жезл Вистории\JamClub_Tsue_to_Tsurugi_no_Wistoria_03_1080p_HEVC.mkv':
  Metadata:
    COMPATIBLE_BRANDS: isomiso2avc1mp41
    MAJOR_BRAND     : isom
    MINOR_VERSION   : 512
    ENCODER         : Lavf61.7.100
  Duration: 00:24:08.32, start: -0.001000, bitrate: 1616 kb/s
  Stream #0:0: Video: hevc (Main 10), yuv420p10le(tv, bt709, progressive), 1920x1080 [SAR 1:1 DAR 16:9], 23.98 fps, 23.98 tbr, 1k tbn (default)
      Metadata:
        HANDLER_NAME    : VideoHandler
        VENDOR_ID       : [0][0][0][0]
        ENCODER         : Lavc61.19.100 libx265
        BPS             : 1418848
        DURATION        : 00:24:08.238708333
        NUMBER_OF_FRAMES: 34723
        NUMBER_OF_BYTES : 256853876
        _STATISTICS_WRITING_APP: mkvpropedit v66.0.0 ('Josie') 64-bit
        _STATISTICS_WRITING_DATE_UTC: 2025-04-29 11:38:29
        _STATISTICS_TAGS: BPS DURATION NUMBER_OF_FRAMES NUMBER_OF_BYTES
  Stream #0:1(eng): Audio: aac (LC), 48000 Hz, stereo, fltp (default)
      Metadata:
        HANDLER_NAME    : SoundHandler
        VENDOR_ID       : [0][0][0][0]
        ENCODER         : Lavc61.19.100 aac
        BPS             : 193720
        DURATION        : 00:24:08.280000000
        NUMBER_OF_FRAMES: 67889
        NUMBER_OF_BYTES : 35070175
        _STATISTICS_WRITING_APP: mkvpropedit v66.0.0 ('Josie') 64-bit
        _STATISTICS_WRITING_DATE_UTC: 2025-04-29 11:38:29
        _STATISTICS_TAGS: BPS DURATION NUMBER_OF_FRAMES NUMBER_OF_BYTES
Input #1, mov,mp4,m4a,3gp,3g2,mj2, from 'G:\Аниме\Онгоинги\!_35_Лето_2024\JamClub\Меч и жезл Вистории\JamClub_Tsue_to_Tsurugi_no_Wistoria_03_1080p.mp4':
  Metadata:
    major_brand     : isom
    minor_version   : 512
    compatible_brands: isomiso2avc1mp41
    encoder         : Lavf60.16.100
  Duration: 00:24:08.30, start: 0.000000, bitrate: 4890 kb/s
  Stream #1:0[0x1](und): Video: h264 (High) (avc1 / 0x31637661), yuv420p(progressive), 1920x1080 [SAR 1:1 DAR 16:9], 4692 kb/s, 23.98 fps, 23.98 tbr, 90k tbn (default)
      Metadata:
        handler_name    : VideoHandler
        vendor_id       : [0][0][0][0]
  Stream #1:1[0x2](eng): Audio: aac (LC) (mp4a / 0x6134706D), 48000 Hz, stereo, fltp, 191 kb/s (default)
      Metadata:
        handler_name    : SoundHandler
        vendor_id       : [0][0][0][0]
Stream mapping:
  Stream #0:0 (hevc) -> settb:default
  Stream #1:0 (h264) -> settb:default
  ssim:default -> Stream #0:0 (wrapped_avframe)
  Stream #0:1 -> #0:1 (aac (native) -> pcm_s16le (native))
Output #0, null, to 'pipe:':
  Metadata:
    COMPATIBLE_BRANDS: isomiso2avc1mp41
    MAJOR_BRAND     : isom
    MINOR_VERSION   : 512
    encoder         : Lavf61.7.100
  Stream #0:0: Video: wrapped_avframe, yuv420p10le(tv, bt709, progressive), 1920x1080 [SAR 1:1 DAR 16:9], q=2-31, 200 kb/s, 23.98 fps, 23.98 tbn
      Metadata:
        encoder         : Lavc61.19.100 wrapped_avframe
  Stream #0:1(eng): Audio: pcm_s16le, 48000 Hz, stereo, s16, 1536 kb/s (default)
      Metadata:
        HANDLER_NAME    : SoundHandler
        VENDOR_ID       : [0][0][0][0]
        _STATISTICS_TAGS: BPS DURATION NUMBER_OF_FRAMES NUMBER_OF_BYTES
        BPS             : 193720
        DURATION        : 00:24:08.280000000
        NUMBER_OF_FRAMES: 67889
        NUMBER_OF_BYTES : 35070175
        _STATISTICS_WRITING_APP: mkvpropedit v66.0.0 ('Josie') 64-bit
        _STATISTICS_WRITING_DATE_UTC: 2025-04-29 11:38:29
        encoder         : Lavc61.19.100 pcm_s16le
frame=  114 fps=0.0 q=-0.0 size=N/A time=00:00:04.75 bitrate=N/A speed=8.99x    frame=  276 fps=266 q=-0.0 size=N/A time=00:00:11.51 bitrate=N/A speed=11.1x    frame=  478 fps=306 q=-0.0 size=N/A time=00:00:19.93 bitrate=N/A speed=12.8x    frame=  713 fps=345 q=-0.0 size=N/A time=00:00:29.73 bitrate=N/A speed=14.4x    frame=  927 fps=359 q=-0.0 size=N/A time=00:00:38.66 bitrate=N/A speed=  15x    frame= 1156 fps=372 q=-0.0 size=N/A time=00:00:48.21 bitrate=N/A speed=15.5x    frame= 1409 fps=390 q=-0.0 size=N/A time=00:00:58.76 bitrate=N/A speed=16.3x    frame= 1658 fps=402 q=-0.0 size=N/A time=00:01:09.15 bitrate=N/A speed=16.8x    frame= 1913 fps=412 q=-0.0 size=N/A time=00:01:19.78 bitrate=N/A speed=17.2x    frame= 2135 fps=413 q=-0.0 size=N/A time=00:01:29.04 bitrate=N/A speed=17.2x    frame= 2370 fps=417 q=-0.0 size=N/A time=00:01:38.84 bitrate=N/A speed=17.4x    frame= 2641 fps=426 q=-0.0 size=N/A time=00:01:50.15 bitrate=N/A speed=17.8x    frame= 2905 fps=433 q=-0.0 size=N/A time=00:02:01.16 bitrate=N/A speed=18.1x    frame= 3127 fps=432 q=-0.0 size=N/A time=00:02:10.42 bitrate=N/A speed=  18x    frame= 3346 fps=432 q=-0.0 size=N/A time=00:02:19.55 bitrate=N/A speed=  18x    frame= 3540 fps=429 q=-0.0 size=N/A time=00:02:27.64 bitrate=N/A speed=17.9x    frame= 3718 fps=424 q=-0.0 size=N/A time=00:02:35.07 bitrate=N/A speed=17.7x    frame= 3925 fps=422 q=-0.0 size=N/A time=00:02:43.70 bitrate=N/A speed=17.6x    frame= 4081 fps=416 q=-0.0 size=N/A time=00:02:50.21 bitrate=N/A speed=17.4x    frame= 4255 fps=412 q=-0.0 size=N/A time=00:02:57.46 bitrate=N/A speed=17.2x    frame= 4451 fps=411 q=-0.0 size=N/A time=00:03:05.64 bitrate=N/A speed=17.1x    frame= 4654 fps=410 q=-0.0 size=N/A time=00:03:14.11 bitrate=N/A speed=17.1x    frame= 4896 fps=413 q=-0.0 size=N/A time=00:03:24.20 bitrate=N/A speed=17.2x    frame= 5099 fps=412 q=-0.0 size=N/A time=00:03:32.67 bitrate=N/A speed=17.2x    frame= 5309 fps=411 q=-0.0 size=N/A time=00:03:41.42 bitrate=N/A speed=17.2x    frame= 5513 fps=411 q=-0.0 size=N/A time=00:03:49.93 bitrate=N/A speed=17.1x    frame= 5751 fps=413 q=-0.0 size=N/A time=00:03:59.86 bitrate=N/A speed=17.2x    frame= 5979 fps=414 q=-0.0 size=N/A time=00:04:09.37 bitrate=N/A speed=17.3x    frame= 6175 fps=413 q=-0.0 size=N/A time=00:04:17.54 bitrate=N/A speed=17.2x    frame= 6414 fps=415 q=-0.0 size=N/A time=00:04:27.55 bitrate=N/A speed=17.3x    frame= 6668 fps=417 q=-0.0 size=N/A time=00:04:38.11 bitrate=N/A speed=17.4x    frame= 6919 fps=419 q=-0.0 size=N/A time=00:04:48.57 bitrate=N/A speed=17.5x    frame= 7162 fps=421 q=-0.0 size=N/A time=00:04:58.71 bitrate=N/A speed=17.5x    frame= 7419 fps=423 q=-0.0 size=N/A time=00:05:09.43 bitrate=N/A speed=17.6x    frame= 7695 fps=426 q=-0.0 size=N/A time=00:05:20.94 bitrate=N/A speed=17.8x    frame= 7920 fps=427 q=-0.0 size=N/A time=00:05:30.33 bitrate=N/A speed=17.8x    frame= 8157 fps=428 q=-0.0 size=N/A time=00:05:40.21 bitrate=N/A speed=17.8x    frame= 8421 fps=430 q=-0.0 size=N/A time=00:05:51.22 bitrate=N/A speed=17.9x    frame= 8683 fps=432 q=-0.0 size=N/A time=00:06:02.15 bitrate=N/A speed=  18x    frame= 8954 fps=434 q=-0.0 size=N/A time=00:06:13.45 bitrate=N/A speed=18.1x    frame= 9177 fps=434 q=-0.0 size=N/A time=00:06:22.75 bitrate=N/A speed=18.1x    frame= 9394 fps=434 q=-0.0 size=N/A time=00:06:31.80 bitrate=N/A speed=18.1x    frame= 9587 fps=432 q=-0.0 size=N/A time=00:06:39.85 bitrate=N/A speed=  18x    frame= 9805 fps=432 q=-0.0 size=N/A time=00:06:48.95 bitrate=N/A speed=  18x    frame=10004 fps=431 q=-0.0 size=N/A time=00:06:57.25 bitrate=N/A speed=  18x    frame=10230 fps=431 q=-0.0 size=N/A time=00:07:06.67 bitrate=N/A speed=  18x    frame=10432 fps=430 q=-0.0 size=N/A time=00:07:15.10 bitrate=N/A speed=17.9x    frame=10606 fps=429 q=-0.0 size=N/A time=00:07:22.35 bitrate=N/A speed=17.9x    frame=10822 fps=428 q=-0.0 size=N/A time=00:07:31.36 bitrate=N/A speed=17.9x    frame=11032 fps=428 q=-0.0 size=N/A time=00:07:40.12 bitrate=N/A speed=17.8x    frame=11265 fps=428 q=-0.0 size=N/A time=00:07:49.84 bitrate=N/A speed=17.9x    frame=11537 fps=430 q=-0.0 size=N/A time=00:08:01.18 bitrate=N/A speed=17.9x    frame=11771 fps=431 q=-0.0 size=N/A time=00:08:10.94 bitrate=N/A speed=  18x    frame=12007 fps=431 q=-0.0 size=N/A time=00:08:20.79 bitrate=N/A speed=  18x    frame=12254 fps=432 q=-0.0 size=N/A time=00:08:31.09 bitrate=N/A speed=  18x    frame=12498 fps=433 q=-0.0 size=N/A time=00:08:41.27 bitrate=N/A speed=  18x    frame=12741 fps=433 q=-0.0 size=N/A time=00:08:51.40 bitrate=N/A speed=18.1x    frame=13017 fps=435 q=-0.0 size=N/A time=00:09:02.91 bitrate=N/A speed=18.2x    frame=13278 fps=436 q=-0.0 size=N/A time=00:09:13.80 bitrate=N/A speed=18.2x    frame=13522 fps=437 q=-0.0 size=N/A time=00:09:23.98 bitrate=N/A speed=18.2x    frame=13790 fps=438 q=-0.0 size=N/A time=00:09:35.15 bitrate=N/A speed=18.3x    frame=14061 fps=440 q=-0.0 size=N/A time=00:09:46.46 bitrate=N/A speed=18.3x    frame=14333 fps=441 q=-0.0 size=N/A time=00:09:57.80 bitrate=N/A speed=18.4x    frame=14559 fps=441 q=-0.0 size=N/A time=00:10:07.23 bitrate=N/A speed=18.4x    frame=14777 fps=441 q=-0.0 size=N/A time=00:10:16.32 bitrate=N/A speed=18.4x    frame=14996 fps=441 q=-0.0 size=N/A time=00:10:25.45 bitrate=N/A speed=18.4x    frame=15240 fps=441 q=-0.0 size=N/A time=00:10:35.63 bitrate=N/A speed=18.4x    frame=15503 fps=442 q=-0.0 size=N/A time=00:10:46.60 bitrate=N/A speed=18.4x    frame=15752 fps=443 q=-0.0 size=N/A time=00:10:56.98 bitrate=N/A speed=18.5x    frame=16008 fps=443 q=-0.0 size=N/A time=00:11:07.66 bitrate=N/A speed=18.5x    frame=16260 fps=444 q=-0.0 size=N/A time=00:11:18.17 bitrate=N/A speed=18.5x    frame=16531 fps=445 q=-0.0 size=N/A time=00:11:29.48 bitrate=N/A speed=18.6x    frame=16790 fps=446 q=-0.0 size=N/A time=00:11:40.28 bitrate=N/A speed=18.6x    frame=17024 fps=446 q=-0.0 size=N/A time=00:11:50.04 bitrate=N/A speed=18.6x    frame=17286 fps=447 q=-0.0 size=N/A time=00:12:00.97 bitrate=N/A speed=18.6x    frame=17553 fps=448 q=-0.0 size=N/A time=00:12:12.10 bitrate=N/A speed=18.7x    frame=17791 fps=448 q=-0.0 size=N/A time=00:12:22.03 bitrate=N/A speed=18.7x    frame=18018 fps=448 q=-0.0 size=N/A time=00:12:31.50 bitrate=N/A speed=18.7x    frame=18241 fps=448 q=-0.0 size=N/A time=00:12:40.80 bitrate=N/A speed=18.7x    frame=18482 fps=448 q=-0.0 size=N/A time=00:12:50.85 bitrate=N/A speed=18.7x    frame=18723 fps=448 q=-0.0 size=N/A time=00:13:00.90 bitrate=N/A speed=18.7x    frame=18970 fps=448 q=-0.0 size=N/A time=00:13:11.20 bitrate=N/A speed=18.7x    frame=19232 fps=449 q=-0.0 size=N/A time=00:13:22.13 bitrate=N/A speed=18.7x    frame=19491 fps=450 q=-0.0 size=N/A time=00:13:32.93 bitrate=N/A speed=18.8x    frame=19730 fps=450 q=-0.0 size=N/A time=00:13:42.90 bitrate=N/A speed=18.8x    frame=19975 fps=450 q=-0.0 size=N/A time=00:13:53.12 bitrate=N/A speed=18.8x    frame=20214 fps=450 q=-0.0 size=N/A time=00:14:03.09 bitrate=N/A speed=18.8x    frame=20435 fps=450 q=-0.0 size=N/A time=00:14:12.30 bitrate=N/A speed=18.8x    frame=20682 fps=450 q=-0.0 size=N/A time=00:14:22.61 bitrate=N/A speed=18.8x    frame=20884 fps=450 q=-0.0 size=N/A time=00:14:31.03 bitrate=N/A speed=18.8x    frame=21096 fps=449 q=-0.0 size=N/A time=00:14:39.87 bitrate=N/A speed=18.7x    frame=21305 fps=449 q=-0.0 size=N/A time=00:14:48.59 bitrate=N/A speed=18.7x    frame=21505 fps=448 q=-0.0 size=N/A time=00:14:56.93 bitrate=N/A speed=18.7x    frame=21707 fps=448 q=-0.0 size=N/A time=00:15:05.36 bitrate=N/A speed=18.7x    frame=21887 fps=447 q=-0.0 size=N/A time=00:15:12.87 bitrate=N/A speed=18.6x    frame=22086 fps=446 q=-0.0 size=N/A time=00:15:21.17 bitrate=N/A speed=18.6x    frame=22288 fps=445 q=-0.0 size=N/A time=00:15:29.59 bitrate=N/A speed=18.6x    frame=22537 fps=446 q=-0.0 size=N/A time=00:15:39.98 bitrate=N/A speed=18.6x    frame=22785 fps=446 q=-0.0 size=N/A time=00:15:50.32 bitrate=N/A speed=18.6x    frame=23005 fps=446 q=-0.0 size=N/A time=00:15:59.50 bitrate=N/A speed=18.6x    frame=23213 fps=446 q=-0.0 size=N/A time=00:16:08.17 bitrate=N/A speed=18.6x    frame=23411 fps=445 q=-0.0 size=N/A time=00:16:16.43 bitrate=N/A speed=18.6x    frame=23617 fps=444 q=-0.0 size=N/A time=00:16:25.02 bitrate=N/A speed=18.5x    frame=23796 fps=444 q=-0.0 size=N/A time=00:16:32.49 bitrate=N/A speed=18.5x    frame=23978 fps=443 q=-0.0 size=N/A time=00:16:40.08 bitrate=N/A speed=18.5x    frame=24147 fps=442 q=-0.0 size=N/A time=00:16:47.13 bitrate=N/A speed=18.4x    frame=24344 fps=441 q=-0.0 size=N/A time=00:16:55.34 bitrate=N/A speed=18.4x    frame=24556 fps=441 q=-0.0 size=N/A time=00:17:04.18 bitrate=N/A speed=18.4x    frame=24769 fps=441 q=-0.0 size=N/A time=00:17:13.07 bitrate=N/A speed=18.4x    frame=24987 fps=440 q=-0.0 size=N/A time=00:17:22.16 bitrate=N/A speed=18.4x    frame=25180 fps=440 q=-0.0 size=N/A time=00:17:30.21 bitrate=N/A speed=18.3x    frame=25363 fps=439 q=-0.0 size=N/A time=00:17:37.84 bitrate=N/A speed=18.3x    frame=25552 fps=438 q=-0.0 size=N/A time=00:17:45.73 bitrate=N/A speed=18.3x    frame=25740 fps=438 q=-0.0 size=N/A time=00:17:53.57 bitrate=N/A speed=18.3x    frame=25935 fps=437 q=-0.0 size=N/A time=00:18:01.70 bitrate=N/A speed=18.2x    frame=26130 fps=437 q=-0.0 size=N/A time=00:18:09.83 bitrate=N/A speed=18.2x    frame=26350 fps=437 q=-0.0 size=N/A time=00:18:19.01 bitrate=N/A speed=18.2x    frame=26530 fps=436 q=-0.0 size=N/A time=00:18:26.52 bitrate=N/A speed=18.2x    frame=26751 fps=436 q=-0.0 size=N/A time=00:18:35.73 bitrate=N/A speed=18.2x    frame=26948 fps=435 q=-0.0 size=N/A time=00:18:43.95 bitrate=N/A speed=18.2x    frame=27163 fps=435 q=-0.0 size=N/A time=00:18:52.92 bitrate=N/A speed=18.2x    frame=27424 fps=436 q=-0.0 size=N/A time=00:19:03.80 bitrate=N/A speed=18.2x    frame=27672 fps=436 q=-0.0 size=N/A time=00:19:14.15 bitrate=N/A speed=18.2x    frame=27938 fps=437 q=-0.0 size=N/A time=00:19:25.24 bitrate=N/A speed=18.2x    frame=28185 fps=437 q=-0.0 size=N/A time=00:19:35.54 bitrate=N/A speed=18.2x    frame=28430 fps=437 q=-0.0 size=N/A time=00:19:45.76 bitrate=N/A speed=18.2x    frame=28663 fps=438 q=-0.0 size=N/A time=00:19:55.48 bitrate=N/A speed=18.3x    frame=28920 fps=438 q=-0.0 size=N/A time=00:20:06.20 bitrate=N/A speed=18.3x    frame=29151 fps=438 q=-0.0 size=N/A time=00:20:15.83 bitrate=N/A speed=18.3x    frame=29369 fps=438 q=-0.0 size=N/A time=00:20:24.93 bitrate=N/A speed=18.3x    frame=29595 fps=438 q=-0.0 size=N/A time=00:20:34.35 bitrate=N/A speed=18.3x    frame=29806 fps=438 q=-0.0 size=N/A time=00:20:43.15 bitrate=N/A speed=18.3x    frame=29992 fps=437 q=-0.0 size=N/A time=00:20:50.91 bitrate=N/A speed=18.2x    frame=30170 fps=436 q=-0.0 size=N/A time=00:20:58.34 bitrate=N/A speed=18.2x    frame=30393 fps=437 q=-0.0 size=N/A time=00:21:07.64 bitrate=N/A speed=18.2x    frame=30583 fps=436 q=-0.0 size=N/A time=00:21:15.56 bitrate=N/A speed=18.2x    frame=30781 fps=436 q=-0.0 size=N/A time=00:21:23.82 bitrate=N/A speed=18.2x    frame=31018 fps=436 q=-0.0 size=N/A time=00:21:33.70 bitrate=N/A speed=18.2x    frame=31241 fps=436 q=-0.0 size=N/A time=00:21:43.01 bitrate=N/A speed=18.2x    frame=31461 fps=436 q=-0.0 size=N/A time=00:21:52.18 bitrate=N/A speed=18.2x    frame=31698 fps=436 q=-0.0 size=N/A time=00:22:02.07 bitrate=N/A speed=18.2x    frame=31945 fps=436 q=-0.0 size=N/A time=00:22:12.37 bitrate=N/A speed=18.2x    frame=32194 fps=436 q=-0.0 size=N/A time=00:22:22.75 bitrate=N/A speed=18.2x    frame=32468 fps=437 q=-0.0 size=N/A time=00:22:34.18 bitrate=N/A speed=18.2x    frame=32737 fps=438 q=-0.0 size=N/A time=00:22:45.40 bitrate=N/A speed=18.3x    frame=32936 fps=437 q=-0.0 size=N/A time=00:22:53.70 bitrate=N/A speed=18.2x    frame=33167 fps=437 q=-0.0 size=N/A time=00:23:03.34 bitrate=N/A speed=18.2x    frame=33429 fps=438 q=-0.0 size=N/A time=00:23:14.26 bitrate=N/A speed=18.3x    frame=33665 fps=438 q=-0.0 size=N/A time=00:23:24.11 bitrate=N/A speed=18.3x    frame=33933 fps=438 q=-0.0 size=N/A time=00:23:35.28 bitrate=N/A speed=18.3x    frame=34165 fps=439 q=-0.0 size=N/A time=00:23:44.96 bitrate=N/A speed=18.3x    frame=34405 fps=439 q=-0.0 size=N/A time=00:23:54.97 bitrate=N/A speed=18.3x    frame=34621 fps=439 q=-0.0 size=N/A time=00:24:03.98 bitrate=N/A speed=18.3x    [Parsed_ssim_10 @ 000002579aa28580] SSIM Y:0.993818 (22.088567) U:0.992214 (21.086992) V:0.992311 (21.141261) All:0.993299 (21.738859)
[out#0/null @ 00000257980a4500] video:14920KiB audio:271556KiB subtitle:0KiB other streams:0KiB global headers:0KiB muxing overhead: unknown
frame=34723 fps=439 q=-0.0 Lsize=N/A time=00:24:08.23 bitrate=N/A speed=18.3x    
